<svg xmlns="http://www.w3.org/2000/svg" xmlns:xlink="http://www.w3.org/1999/xlink" viewBox="0 0 2978.15 2296.08"><defs><style>.cls-1{fill:none;}.cls-2{isolation:isolate;}.cls-3{clip-path:url(#clip-path);}.cls-4{fill:url(#radial-gradient);}.cls-5{fill:#e2e2e2;mix-blend-mode:soft-light;opacity:0.39;}</style><clipPath id="clip-path" transform="translate(108.14)"><rect class="cls-1" width="2732" height="2049"/></clipPath><radialGradient id="radial-gradient" cx="1650.55" cy="1634.48" r="3079.47" gradientTransform="translate(58.23 -3.45) scale(1.02 1.15)" gradientUnits="userSpaceOnUse"><stop offset="0" stop-color="#edfed4"/><stop offset="0.27" stop-color="#9ff1c1"/><stop offset="0.59" stop-color="#39b7cc"/></radialGradient></defs><g class="cls-2"><g id="Layer_2" data-name="Layer 2"><g id="Layer_1-2" data-name="Layer 1"><g class="cls-3"><rect class="cls-4" x="108.14" width="2732" height="2049"/><path class="cls-5" d="M2456.29,1088.1a407.46,407.46,0,0,0-212.56,59.57c-71.46-125.71-205.32-210.34-358.66-210.34a408.33,408.33,0,0,0-117,17C1709,710.3,1491.83,529.21,1233,529.21c-192.5,0-361.91,100.15-460.44,251.87a440.77,440.77,0,0,0-268.85-91.2c-246.81,0-446.88,202.94-446.88,453.28a457.07,457.07,0,0,0,39.75,187.13c-121.73,65.38-204.68,195.15-204.68,344.59,0,215.22,172,389.69,384.19,389.69,127.64,0,240.72-63.16,310.59-160.33a378.83,378.83,0,0,0,116.58,18.29c102.8,0,196.16-41,265.1-107.64,70.35,90.53,179.43,148.66,301.9,148.66,130.34,0,245.5-65.85,315-166.52,67.2,113.29,189.58,189.09,329.42,189.09,119,0,225.26-54.84,295.73-140.93a408.05,408.05,0,0,0,246,82.2c228.49,0,413.72-187.88,413.72-419.64S2684.78,1088.1,2456.29,1088.1Z" transform="translate(108.14)"/><path class="cls-5" d="M2353.66,1476.15a342.08,342.08,0,0,0-178.48,50c-60-105.56-172.41-176.62-301.17-176.62a342.67,342.67,0,0,0-98.26,14.32c-49.62-205-231.94-357-449.31-357-161.65,0-303.9,84.1-386.64,211.49a370.11,370.11,0,0,0-225.75-76.58c-207.24,0-375.24,170.41-375.24,380.62a383.87,383.87,0,0,0,33.37,157.13c-102.21,54.9-171.86,163.87-171.86,289.35,0,180.72,144.43,327.22,322.6,327.22,107.18,0,202.14-53,260.8-134.62a318.32,318.32,0,0,0,97.9,15.36c86.31,0,164.71-34.39,222.6-90.39,59.07,76,150.67,124.83,253.5,124.83,109.45,0,206.14-55.29,264.47-139.83,56.43,95.13,159.19,158.78,276.62,158.78,99.87,0,189.14-46,248.32-118.34a342.57,342.57,0,0,0,206.53,69c191.87,0,347.4-157.77,347.4-352.38S2545.53,1476.15,2353.66,1476.15Z" transform="translate(108.14)"/></g></g></g></g></svg>