<svg xmlns="http://www.w3.org/2000/svg" viewBox="0 0 234.71 234.71"><defs><style>.cls-1{fill:#f7ffc7;stroke:#2f8986;stroke-miterlimit:10;stroke-width:8.63px;}.cls-2{fill:#2f8986;}</style></defs><g id="Layer_2" data-name="Layer 2"><g id="Layer_1-2" data-name="Layer 1"><circle class="cls-1" cx="117.36" cy="117.36" r="113.04"/><path class="cls-2" d="M155.39,90.24c-5,.13-6.3-7.9-1.62-9.57l22.53-9c5.72-2.31,8.77,7.22,3.24,9.25C178.38,81.09,156.14,90.78,155.39,90.24Z"/><path class="cls-2" d="M177.27,166.44c-.86.94-22.39-13.06-23.5-13.44-5.13-2.86-.86-11.83,4.53-8.61l21.23,12.81C183.57,159.39,182,166.56,177.27,166.44Z"/><path class="cls-2" d="M183.83,122.34H155.39a5,5,0,0,1,0-9.88h28.44C189.8,112.37,189.82,122.44,183.83,122.34Z"/><path class="cls-2" d="M115.08,67.38a5.63,5.63,0,0,0-6.15,1.05L77.49,97.68H64.73A12.33,12.33,0,0,0,52.41,110v21.1a12.33,12.33,0,0,0,12.32,12.32H77.49l31.44,29.25a5.65,5.65,0,0,0,7.06.55,5.58,5.58,0,0,0,2.51-4.72V72.6A5.64,5.64,0,0,0,115.08,67.38Z"/><path class="cls-2" d="M125.13,101.79v37.52a18.76,18.76,0,0,0,0-37.52Z"/></g></g></svg>